<?xml version="1.0" encoding="UTF-8"?><svg id="a" xmlns="http://www.w3.org/2000/svg" xmlns:xlink="http://www.w3.org/1999/xlink" viewBox="0 0 16 16"><defs><style>.h{fill:#fff;}.i{fill:url(#c);}.j{fill:url(#f);}.k{fill:url(#g);}.l{fill:url(#b);}.m{fill:url(#d);}.n{fill:url(#e);}.o{fill:#ed5b2b;}</style><radialGradient id="b" cx="7.95" cy="6.86" fx="7.95" fy="6.86" r="4.95" gradientTransform="translate(0 -4.28) scale(1 1.62)" gradientUnits="userSpaceOnUse"><stop offset="0" stop-color="#9ded80"/><stop offset=".14" stop-color="#95e77e"/><stop offset=".36" stop-color="#81d978"/><stop offset=".61" stop-color="#60c370"/><stop offset=".89" stop-color="#36a565"/></radialGradient><radialGradient id="c" cx="8.36" cy="7.74" fx="8.36" fy="7.74" r="4.5" gradientTransform="translate(0 -5.48) scale(1 1.71)" xlink:href="#b"/><radialGradient id="d" cx="13.66" cy="7.62" fx="13.66" fy="7.62" r="3.42" gradientTransform="translate(4.52 -13.53) rotate(13) scale(1 2.44)" xlink:href="#b"/><radialGradient id="e" cx="13.54" cy="8.5" fx="13.54" fy="8.5" r="3.27" gradientTransform="translate(3.73 -10.37) rotate(12.06) scale(1 1.93)" gradientUnits="userSpaceOnUse"><stop offset="0" stop-color="#9ded80"/><stop offset=".16" stop-color="#95e77e"/><stop offset=".4" stop-color="#81d978"/><stop offset=".69" stop-color="#60c370"/><stop offset="1" stop-color="#36a565"/></radialGradient><radialGradient id="f" cx="4.97" cy="11.34" fx="4.97" fy="11.34" r="5.06" gradientTransform="translate(21.32 16.14) rotate(123.31) scale(1 1.44)" xlink:href="#b"/><radialGradient id="g" cx="2.84" cy="10.38" fx="2.84" fy="10.38" r="3.29" gradientTransform="translate(-31.81 -4.18) rotate(-62.88) scale(1 3.61)" gradientUnits="userSpaceOnUse"><stop offset="0" stop-color="#9ded80"/><stop offset=".14" stop-color="#98e97e"/><stop offset=".29" stop-color="#8be07b"/><stop offset=".45" stop-color="#75d175"/><stop offset=".61" stop-color="#57bc6d"/><stop offset=".76" stop-color="#36a565"/></radialGradient></defs><g><path class="l" d="M10.98,13.81C.51,9.83,5.61-.9,9.08,1.67c-1.8,.78-3.3,8.78,1.91,12.13Z"/><path class="i" d="M11.27,9.93c-.02,1.14-.1,2.56-.28,3.88h0c-5.21-3.36-3.71-11.36-1.91-12.14,.93,.69,1.74,2.33,2.11,5.3,.06,.86,.09,1.84,.09,2.95Z"/><path class="m" d="M11.1,12.53c2.47-.6,4.08-3.91,3.2-6.93-.2-.71-.64-1.32-1.1-1.64,.79-.07,1.79,.78,2.13,1.85,1.01,3.04-1.14,6.33-4.23,6.73Z"/><path class="n" d="M11.1,12.53h0c1.04-2.17,1.23-4.68,1.08-7.03,.08-1.05,.51-1.49,1.03-1.54,.46,.32,.9,.93,1.1,1.64,.89,3.02-.73,6.34-3.2,6.93Z"/><path class="j" d="M10.99,13.81C6.21,16.45-.07,12.8,1.16,9.71h0c.19-.53,.45-.88,.89-1.17,.08-.05,.18-.06,.26-.03,.18,.06,.37,.14,.55,.22,.09,.04,.19,.1,.3,.18,.19,2.91,4.03,5.7,7.82,4.91Z"/><path class="k" d="M10.99,13.81h0c-3.79,.8-7.64-2-7.82-4.91,.31,.21,.66,.5,.86,.69,2.1,1.99,4.24,3.22,6.96,4.22Z"/></g><g><path class="o" d="M1.66,8.33c-.58,.38-1.5,.68-1.65,.03-.1-.42,.57-.69,1.65-.03Z"/><path class="o" d="M2.08,8.21c-.65-.22-1.46-.77-1.03-1.29,.27-.33,.9,.02,1.03,1.29Z"/><path class="o" d="M2.76,8.29c.6,.34,1.55,.57,1.65-.09,.07-.42-.62-.65-1.65,.09Z"/><path class="o" d="M2.33,8.2c.64-.27,1.4-.87,.94-1.36-.29-.31-.89,.09-.94,1.36Z"/></g><g><path class="o" d="M13.33,3.55c-.67,.16-1.64,.13-1.56-.54,.05-.43,.77-.46,1.56,.54Z"/><path class="o" d="M13.76,3.57c-.54-.43-1.11-1.22-.54-1.57,.37-.22,.84,.33,.54,1.57Z"/><path class="o" d="M14.38,3.88c.45,.52,1.26,1.06,1.58,.48,.21-.38-.36-.82-1.58-.48Z"/><path class="o" d="M14.01,3.65c.69-.03,1.61-.34,1.35-.96-.17-.39-.87-.22-1.35,.96Z"/></g><g><path class="h" d="M7.92,2.77c-.16-.08-.25-.21-.28-.39,.16,.08,.25,.21,.28,.39,0,0-.03-.17,0,0Z"/><path class="h" d="M7.48,4.24c-.17-.06-.28-.18-.33-.34,.17,.06,.28,.18,.33,.34,0,0-.06-.17,0,0Z"/><path class="h" d="M7.25,5.77c-.17-.04-.3-.14-.38-.29,.17,.04,.3,.14,.38,.29,0,0-.08-.16,0,0Z"/><path class="h" d="M7.24,7.31c-.18-.01-.31-.09-.42-.24,.18,.01,.31,.09,.42,.24,0,0-.1-.15,0,0Z"/><path class="h" d="M7.45,8.83c-.18,.01-.32-.05-.44-.18,.18-.01,.32,.05,.44,.18,0,0-.12-.13,0,0Z"/><path class="h" d="M7.87,10.32c-.17,.04-.33,0-.47-.11,.17-.04,.33,0,.47,.11,0,0-.14-.11,0,0Z"/><path class="h" d="M8.5,11.72c-.17,.06-.32,.05-.48-.04,.17-.06,.32-.05,.48,.04,0,0-.15-.09,0,0Z"/><path class="h" d="M2.73,9.51c-.14,.05-.27,.03-.39-.06,.14-.05,.27-.03,.39,.06,0,0-.12-.09,0,0Z"/><path class="h" d="M3.3,10.54c-.13,.07-.26,.07-.4,0,.13-.07,.26-.07,.4,0,0,0-.13-.07,0,0Z"/><path class="h" d="M4.02,11.49c-.12,.09-.25,.11-.39,.06,.12-.09,.25-.11,.39-.06,0,0-.14-.05,0,0Z"/><path class="h" d="M4.87,12.32c-.11,.1-.23,.14-.38,.11,.11-.11,.23-.14,.38-.11,0,0-.15-.03,0,0Z"/><path class="h" d="M5.82,13.02c-.09,.12-.21,.17-.36,.16,.09-.12,.21-.17,.36-.16,0,0-.15,0,0,0Z"/><path class="h" d="M6.87,13.57c-.07,.13-.18,.2-.33,.21,.07-.13,.18-.2,.33-.21,0,0-.15,.01,0,0Z"/><path class="h" d="M7.98,13.98c-.05,.14-.15,.23-.3,.26,.05-.14,.15-.23,.3-.26,0,0-.15,.03,0,0Z"/><path class="h" d="M14.63,5.39c.04-.14,.13-.24,.28-.28-.04,.14-.13,.24-.28,.28,0,0,.14-.04,0,0Z"/><path class="h" d="M14.79,6.56c.06-.14,.17-.22,.31-.24-.06,.14-.17,.22-.31,.24,0,0,.15-.02,0,0Z"/><path class="h" d="M14.79,7.75c.08-.13,.2-.19,.35-.19-.08,.13-.2,.19-.35,.19,0,0,.15,0,0,0Z"/><path class="h" d="M14.62,8.92c.1-.11,.22-.16,.37-.14-.1,.11-.22,.16-.37,.14,0,0,.15,.02,0,0Z"/><path class="h" d="M14.04,10.11c.11-.1,.24-.13,.39-.09-.11,.1-.24,.13-.39,.09,0,0,.14,.04,0,0Z"/></g></svg>